<?xml version="1.0" encoding="UTF-8" standalone="no"?>
<!-- Created with Inkscape (http://www.inkscape.org/) -->

<svg
   xmlns:dc="http://purl.org/dc/elements/1.1/"
   xmlns:cc="http://creativecommons.org/ns#"
   xmlns:rdf="http://www.w3.org/1999/02/22-rdf-syntax-ns#"
   xmlns:svg="http://www.w3.org/2000/svg"
   xmlns="http://www.w3.org/2000/svg"
   xmlns:sodipodi="http://sodipodi.sourceforge.net/DTD/sodipodi-0.dtd"
   xmlns:inkscape="http://www.inkscape.org/namespaces/inkscape"
   width="684.28723"
   height="593.86169"
   id="svg2"
   version="1.1"
   inkscape:version="0.48.2 r9819"
   sodipodi:docname="court_inkscape.svg">
  <defs
     id="defs4">
    <inkscape:path-effect
       effect="spiro"
       id="path-effect3831"
       is_visible="true" />
    <inkscape:path-effect
       effect="spiro"
       id="path-effect3825"
       is_visible="true" />
    <inkscape:path-effect
       effect="spiro"
       id="path-effect3821"
       is_visible="true" />
    <inkscape:path-effect
       effect="spiro"
       id="path-effect3817"
       is_visible="true" />
    <inkscape:path-effect
       effect="spiro"
       id="path-effect3813"
       is_visible="true" />
    <inkscape:path-effect
       effect="spiro"
       id="path-effect3809"
       is_visible="true" />
    <inkscape:path-effect
       effect="spiro"
       id="path-effect3805"
       is_visible="true" />
  </defs>
  <sodipodi:namedview
     id="base"
     pagecolor="#ffffff"
     bordercolor="#666666"
     borderopacity="1.0"
     inkscape:pageopacity="0.0"
     inkscape:pageshadow="2"
     inkscape:zoom="1.24"
     inkscape:cx="369.21805"
     inkscape:cy="449.64702"
     inkscape:document-units="px"
     inkscape:current-layer="layer1"
     showgrid="false"
     inkscape:window-width="1366"
     inkscape:window-height="706"
     inkscape:window-x="-8"
     inkscape:window-y="-8"
     inkscape:window-maximized="1"
     fit-margin-top="50"
     fit-margin-left="50"
     fit-margin-right="50"
     fit-margin-bottom="50" />
  <metadata
     id="metadata7">
    <rdf:RDF>
      <cc:Work
         rdf:about="">
        <dc:format>image/svg+xml</dc:format>
        <dc:type
           rdf:resource="http://purl.org/dc/dcmitype/StillImage" />
        <dc:title />
      </cc:Work>
    </rdf:RDF>
  </metadata>
  <g
     inkscape:label="Layer 1"
     inkscape:groupmode="layer"
     id="layer1"
     transform="translate(0,31.499512)">
    <path
       sodipodi:type="arc"
       style="fill:none;stroke:#000000;stroke-width:2.10179591;stroke-linecap:butt;stroke-linejoin:miter;stroke-miterlimit:4;stroke-opacity:1;stroke-dasharray:none;stroke-dashoffset:0"
       id="path3813"
       sodipodi:cx="345.56451"
       sodipodi:cy="47.490726"
       sodipodi:rx="93.145164"
       sodipodi:ry="89.919357"
       d="m 438.70968,47.490726 a 93.145164,89.919357 0 1 1 -186.29033,-4e-6 l 93.14516,4e-6 z"
       transform="matrix(0.95238095,0,0,0.95075405,8.7941628,-25.151976)"
       sodipodi:start="0"
       sodipodi:end="3.1415927" />
    <path
       sodipodi:type="arc"
       style="fill:none;stroke:#000000;stroke-width:2.37575603;stroke-linecap:butt;stroke-linejoin:miter;stroke-miterlimit:4;stroke-opacity:1;stroke-dasharray:none;stroke-dashoffset:0"
       id="path3813-1"
       sodipodi:cx="345.56451"
       sodipodi:cy="47.490726"
       sodipodi:rx="93.145164"
       sodipodi:ry="89.919357"
       d="m 438.70968,47.490726 a 93.145164,89.919357 0 1 1 -186.29033,-4e-6 l 93.14516,4e-6 z"
       transform="matrix(0.84848485,0,0,0.83524188,44.696971,-20.449223)"
       sodipodi:start="0"
       sodipodi:end="3.1415927" />
    <path
       style="fill:none;stroke:#000000;stroke-width:1px;stroke-linecap:butt;stroke-linejoin:miter;stroke-opacity:1"
       d="m 300.59857,466.35993 0,-26.25329 c 27.86656,-48.12034 74.69135,-20.19278 78.70369,-0.21985 l 0.21503,26.36081"
       id="path3038"
       inkscape:connector-curvature="0"
       transform="translate(0,-31.499512)"
       sodipodi:nodetypes="cccc" />
    <path
       sodipodi:type="arc"
       style="fill:none;stroke:#000000;stroke-width:4.31709719;stroke-linecap:butt;stroke-linejoin:miter;stroke-miterlimit:4;stroke-opacity:1;stroke-dasharray:none;stroke-dashoffset:0"
       id="path3827"
       sodipodi:cx="369.90741"
       sodipodi:cy="575.04736"
       sodipodi:rx="56.944443"
       sodipodi:ry="49.537037"
       d="m 312.96447,575.40702 c -0.22834,-27.35783 25.08079,-49.69676 56.52951,-49.89539 31.39285,-0.19828 57.04835,21.74297 57.35515,49.05162 l -56.94172,0.48411 z"
       sodipodi:start="3.1343323"
       sodipodi:end="6.2734123"
       transform="matrix(0.96548697,0,0,1.125369,-16.539492,-356.62005)" />
    <path
       sodipodi:type="arc"
       style="fill:none;stroke:#000000;stroke-width:4.31257963;stroke-linecap:butt;stroke-linejoin:miter;stroke-miterlimit:4;stroke-opacity:1;stroke-dasharray:12.93773985, 12.93773985;stroke-dashoffset:0"
       id="path3827-1"
       sodipodi:cx="369.90741"
       sodipodi:cy="575.04736"
       sodipodi:rx="56.944443"
       sodipodi:ry="49.537037"
       d="m 312.96447,575.40702 c -0.22834,-27.35783 25.08079,-49.69676 56.52951,-49.89539 31.39285,-0.19828 57.04835,21.74297 57.35515,49.05162 l -56.94172,0.48411 z"
       sodipodi:start="3.1343323"
       sodipodi:end="6.2734123"
       transform="matrix(-0.96553311,0.0013626,-0.0015601,-1.1276718,698.60535,937.9458)" />
    <rect
       style="opacity:0.63999999;fill:none;stroke:#c60000;stroke-width:4.49999952;stroke-linecap:butt;stroke-linejoin:miter;stroke-miterlimit:4;stroke-opacity:1;stroke-dasharray:none;stroke-dashoffset:0"
       id="rect2996"
       width="579.78723"
       height="489.91077"
       x="52.25"
       y="20.201397" />
    <rect
       style="opacity:0.65;fill:none;stroke:#48ab18;stroke-width:4.5;stroke-linecap:butt;stroke-linejoin:miter;stroke-miterlimit:4;stroke-opacity:1;stroke-dasharray:none;stroke-dashoffset:0"
       id="rect2998"
       width="485.10638"
       height="456.38297"
       x="97.994675"
       y="20.750488" />
    <rect
       style="opacity:0.65;fill:#ce2e5c;fill-opacity:1;fill-rule:nonzero;stroke:#000000;stroke-width:1;stroke-opacity:1"
       id="rect3797"
       width="23.148148"
       height="184.36678"
       x="263.43994"
       y="292.2438" />
    <rect
       style="opacity:0.65000000000000002;fill:#ce2f5c;fill-opacity:1;fill-rule:nonzero;stroke:#000000;stroke-opacity:1"
       id="rect3799"
       width="21.296297"
       height="183.33333"
       x="398.62512"
       y="292.2438" />
    <path
       sodipodi:type="arc"
       style="fill:none;stroke:#e8ab18;stroke-width:2.2891748;stroke-linecap:butt;stroke-linejoin:miter;stroke-miterlimit:4;stroke-opacity:1;stroke-dasharray:none;stroke-dashoffset:0"
       id="path3822"
       sodipodi:cx="337.5"
       sodipodi:cy="454.50986"
       sodipodi:rx="8.7962961"
       sodipodi:ry="7.8703704"
       d="m 346.2963,454.50986 c 0,4.34668 -3.93824,7.87037 -8.7963,7.87037 -4.85806,0 -8.7963,-3.52369 -8.7963,-7.87037 0,-4.34669 3.93824,-7.87037 8.7963,-7.87037 4.85806,0 8.7963,3.52368 8.7963,7.87037 z"
       transform="matrix(0.82641594,0,0,0.92364132,60.495047,2.6052752)" />
    <path
       style="fill:none;stroke:#48ab18;stroke-width:2;stroke-linecap:butt;stroke-linejoin:miter;stroke-miterlimit:4;stroke-opacity:1;stroke-dasharray:none"
       d="m 325.79711,435.19494 25.09395,-0.15133"
       id="path3824"
       inkscape:connector-curvature="0"
       sodipodi:nodetypes="cc" />
    <rect
       style="fill:#e8ab18;fill-opacity:1;stroke:none"
       id="rect3826"
       width="3.7037036"
       height="3.7037036"
       x="337.69171"
       y="430.53293" />
    <path
       style="fill:#c70000;fill-opacity:0.63921569;fill-rule:nonzero;stroke:#000000;stroke-width:2;stroke-linecap:butt;stroke-linejoin:miter;stroke-miterlimit:4;stroke-opacity:1;stroke-dasharray:none;stroke-dashoffset:0"
       d="m 323.49224,102.96466 c -32.26649,-5.773338 -58.53356,-27.678697 -68.49012,-57.117191 -1.69947,-5.024793 -4.46118,-18.665277 -4.489,-22.171782 -0.003,-0.32958 1.56226,-0.599237 3.47749,-0.599237 l 3.48224,0 0.90878,6.729272 c 2.0645,15.286983 9.37184,29.959833 20.59714,41.358252 32.35001,32.848886 86.52555,32.567616 118.22815,-0.613833 10.83614,-11.341621 17.41913,-24.323064 20.03442,-39.507232 l 1.37212,-7.966459 3.16256,0 3.16257,0 -0.52501,6.153327 c -1.43394,16.80647 -10.49226,35.561489 -23.43625,48.524206 -11.81106,11.828136 -24.67222,19.121868 -41.99181,23.814087 -6.47295,1.75365 -28.62599,2.62532 -35.49328,1.39659 z"
       id="path3835"
       inkscape:connector-curvature="0" />
    <rect
       style="opacity:0.65;fill:#d7c488;fill-opacity:0.96724058;fill-rule:nonzero;stroke:#48ab18;stroke-width:2;stroke-linecap:butt;stroke-linejoin:miter;stroke-miterlimit:4;stroke-opacity:1;stroke-dasharray:none;stroke-dashoffset:0"
       id="A"
       width="30.889977"
       height="135.85402"
       x="99.551025"
       y="339.46603" />
    <rect
       style="opacity:0.65;fill:#d7c488;fill-opacity:0.96724058;fill-rule:nonzero;stroke:#48ab18;stroke-width:2;stroke-linecap:butt;stroke-linejoin:miter;stroke-miterlimit:4;stroke-opacity:1;stroke-dasharray:none;stroke-dashoffset:0"
       id="G"
       width="80.118729"
       height="96.373627"
       x="130.62076"
       y="340.05753"
       ry="0" />
    <rect
       style="opacity:0.65;fill:#d7c488;fill-opacity:0.96724058;fill-rule:nonzero;stroke:#48ab18;stroke-width:2;stroke-linecap:butt;stroke-linejoin:miter;stroke-miterlimit:4;stroke-opacity:1;stroke-dasharray:none;stroke-dashoffset:0"
       id="N"
       width="52.777775"
       height="96.296295"
       x="210.66214"
       y="340.39194" />
    <rect
       style="opacity:0.65;fill:#d7c488;fill-opacity:0.96724058;fill-rule:nonzero;stroke:#48ab18;stroke-width:2;stroke-linecap:butt;stroke-linejoin:miter;stroke-miterlimit:4;stroke-opacity:1;stroke-dasharray:none;stroke-dashoffset:0"
       id="Q"
       width="68.75"
       height="98.379631"
       x="419.68991"
       y="339.23453" />
    <rect
       style="opacity:0.65;fill:#d7c488;fill-opacity:0.96724058;fill-rule:nonzero;stroke:#48ab18;stroke-width:2;stroke-linecap:butt;stroke-linejoin:miter;stroke-miterlimit:4;stroke-opacity:1;stroke-dasharray:none;stroke-dashoffset:0"
       id="K"
       width="64.272423"
       height="98.424164"
       x="488.43997"
       y="338.54007" />
    <rect
       style="opacity:0.65;fill:#d7c488;fill-opacity:0.96724058;fill-rule:nonzero;stroke:#48ab18;stroke-width:2;stroke-linecap:butt;stroke-linejoin:miter;stroke-miterlimit:4;stroke-opacity:1;stroke-dasharray:none;stroke-dashoffset:0"
       id="E"
       width="28.703703"
       height="137.03703"
       x="553.2547"
       y="338.54007" />
    <rect
       style="opacity:0.65;fill:#d7c488;fill-opacity:0.96724058;fill-rule:nonzero;stroke:#48ab18;stroke-width:2;stroke-linecap:butt;stroke-linejoin:miter;stroke-miterlimit:4;stroke-opacity:1;stroke-dasharray:none;stroke-dashoffset:0"
       id="L"
       width="64.492271"
       height="38.832722"
       x="488.49124"
       y="436.74438" />
    <rect
       style="opacity:0.65;fill:#d7c488;fill-opacity:0.96724058;fill-rule:nonzero;stroke:#48ab18;stroke-width:2;stroke-linecap:butt;stroke-linejoin:miter;stroke-miterlimit:4;stroke-opacity:1;stroke-dasharray:none;stroke-dashoffset:0"
       id="R"
       width="69.332108"
       height="38.888889"
       x="418.99548"
       y="436.6882" />
    <rect
       style="opacity:0.65;fill:#d7c488;fill-opacity:0.96724058;fill-rule:nonzero;stroke:#48ab18;stroke-width:2;stroke-linecap:butt;stroke-linejoin:miter;stroke-miterlimit:4;stroke-opacity:1;stroke-dasharray:none;stroke-dashoffset:0"
       id="F"
       width="80.390007"
       height="39.235249"
       x="130.56081"
       y="436.61304" />
    <rect
       style="opacity:0.65;fill:#d7c488;fill-opacity:0.96724058;fill-rule:nonzero;stroke:#48ab18;stroke-width:1.99999988;stroke-linecap:butt;stroke-linejoin:miter;stroke-miterlimit:4;stroke-opacity:1;stroke-dasharray:none;stroke-dashoffset:0"
       id="M"
       width="53.098087"
       height="39.490799"
       x="210.94038"
       y="436.24854" />
    <path
       style="fill:none;stroke:#48ab18;stroke-width:2;stroke-linecap:butt;stroke-linejoin:miter;stroke-miterlimit:4;stroke-opacity:1;stroke-dasharray:none"
       d="m 265.29177,476.27157 72.68518,0 -12.55587,-41.20371 -60.12931,0.69445 0,40.50926"
       id="S"
       inkscape:path-effect="#path-effect3805"
       inkscape:original-d="m 265.29177,476.27157 72.68518,0 -12.55587,-41.20371 -60.12931,0.69445 z"
       inkscape:connector-curvature="0"
       sodipodi:nodetypes="ccccc" />
    <path
       style="fill:none;stroke:#48ab18;stroke-width:1.99999976;stroke-linecap:butt;stroke-linejoin:miter;stroke-miterlimit:4;stroke-opacity:1;stroke-dasharray:none"
       d="m 418.72123,476.08416 0.37616,-40.32576 -67.85338,-0.37963 -13.73004,40.70539 81.20726,0"
       id="W"
       inkscape:path-effect="#path-effect3809"
       inkscape:original-d="m 418.72123,476.08416 0.37616,-40.32576 -67.85338,-0.37963 -13.73004,40.70539 z"
       inkscape:connector-curvature="0"
       sodipodi:nodetypes="ccccc" />
    <path
       style="fill:none;stroke:#48ab18;stroke-width:1px;stroke-linecap:butt;stroke-linejoin:miter;stroke-opacity:1"
       d="m 274.43528,263.54009 -36.9213,0 -0.92593,75.92592 c 9.2591,0.0676 18.51868,0.0676 27.77778,0 10.10904,-0.0738 20.21749,-0.2281 30.32407,-0.46296 l -20.25462,-75.46296"
       id="O"
       inkscape:path-effect="#path-effect3813"
       inkscape:original-d="m 274.43528,263.54009 -36.9213,0 -0.92593,75.92592 27.77778,0 30.32407,-0.46296 c -5.65616,-25.16631 -13.52926,-50.56907 -20.25462,-75.46296 z"
       inkscape:connector-curvature="0"
       sodipodi:nodetypes="cccccc" />
    <path
       style="fill:none;stroke:#48ab18;stroke-width:1px;stroke-linecap:butt;stroke-linejoin:miter;stroke-opacity:1"
       d="m 445.84731,339.46601 0,-72.22222 -37.03703,-0.92592 c -3.54031,8.58397 -6.93602,17.22758 -10.18519,25.92592 -5.74718,15.38576 -11.0358,30.94281 -15.85648,46.64353 11.45624,0.29801 22.91522,0.49092 34.375,0.57869 9.56771,0.0733 19.13599,0.0733 28.7037,0"
       id="P"
       inkscape:path-effect="#path-effect3817"
       inkscape:original-d="m 445.84731,339.46601 0,-72.22222 -37.03703,-0.92592 -10.18519,25.92592 -15.85648,46.64353 34.375,0.57869 z"
       inkscape:connector-curvature="0"
       sodipodi:nodetypes="ccccccc" />
    <path
       style="fill:none;stroke:#48ab18;stroke-width:1px;stroke-linecap:butt;stroke-linejoin:miter;stroke-opacity:1"
       d="m 264.59732,437.1512 -1.15741,-97.68518 30.55556,0 31.48147,96.29629 -60.87962,1.38889"
       id="T"
       inkscape:path-effect="#path-effect3821"
       inkscape:original-d="m 264.59732,437.1512 -1.15741,-97.68518 30.55556,0 31.48147,96.29629 z"
       inkscape:connector-curvature="0"
       sodipodi:nodetypes="ccccc" />
    <path
       style="fill:none;stroke:#48ab18;stroke-width:1px;stroke-linecap:butt;stroke-linejoin:miter;stroke-opacity:1"
       d="m 552.3288,338.54009 -106.48149,0 -0.23148,-71.75926 -36.80555,-0.23148 21.29629,-53.93518 c 76.85185,34.5679 102.77778,82.09876 122.22223,125.92592 z"
       id="J"
       inkscape:connector-curvature="0"
       sodipodi:nodetypes="cccccc" />
    <path
       style="fill:none;stroke:#48ab18;stroke-width:1px;stroke-linecap:butt;stroke-linejoin:miter;stroke-opacity:1"
       d="m 129.18065,339.46601 108.33333,0.92593 0,-76.85185 36.57407,-0.23148 -15.27777,-54.39815 C 183.193,238.54009 139.05719,303.3549 129.18065,339.46601 z"
       id="H"
       inkscape:connector-curvature="0"
       sodipodi:nodetypes="cccccc" />
    <path
       style="fill:none;stroke:#48ab18;stroke-width:1px;stroke-linecap:butt;stroke-linejoin:miter;stroke-opacity:1"
       d="m 350.93991,435.99379 31.94445,-97.4537 36.34258,0.92592 0.46297,96.75926 z"
       id="V"
       inkscape:connector-curvature="0"
       sodipodi:nodetypes="ccccc" />
    <path
       style="fill:none;stroke:#48ab18;stroke-width:1px;stroke-linecap:butt;stroke-linejoin:miter;stroke-opacity:1"
       d="M 337.97695,475.57713 294.6899,339.1188 l 87.96297,-0.34723 z"
       id="U"
       inkscape:connector-curvature="0"
       sodipodi:nodetypes="cccc" />
    <path
       style="fill:none;stroke:#48ab18;stroke-width:1px;stroke-linecap:butt;stroke-linejoin:miter;stroke-opacity:1"
       d="m 258.34731,208.4475 35.99537,130.32408 87.38426,-0.92594 47.45371,-125.23148 C 371.15596,187.30552 303.40904,194.40429 258.34731,208.4475 z"
       id="I"
       inkscape:connector-curvature="0"
       sodipodi:nodetypes="ccccc" />
    <path
       style="fill:none;stroke:#48ab18;stroke-width:1px;stroke-linecap:butt;stroke-linejoin:miter;stroke-opacity:1"
       d="M 258.06452,208.59874 202.68817,21.501967 97.849462,20.964333 98.387097,339.2439 l 30.107523,0 c 23.29749,-48.92473 52.50897,-98.92473 129.5699,-130.64516 z"
       id="B"
       inkscape:connector-curvature="0"
       sodipodi:nodetypes="cccccc" />
    <path
       style="fill:none;stroke:#48ab18;stroke-width:1px;stroke-linecap:butt;stroke-linejoin:miter;stroke-opacity:1"
       d="m 201.6129,51.92621 56.98925,189.24731 c 66.12903,-25.80645 140.32258,-12.36559 170.96774,3.22581 L 498.92473,52.463845 z"
       id="C"
       inkscape:connector-curvature="0"
       transform="translate(0,-31.499512)"
       sodipodi:nodetypes="ccccc" />
    <path
       style="fill:none;stroke:#48ab18;stroke-width:1px;stroke-linecap:butt;stroke-linejoin:miter;stroke-opacity:1"
       d="m 429.56989,243.32406 c 73.4767,34.58781 93.7276,67.02509 122.04301,126.34409 l 31.72043,0.53763 0,-317.741933 -84.94623,-2e-6 z"
       id="D"
       inkscape:connector-curvature="0"
       transform="translate(0,-31.499512)"
       sodipodi:nodetypes="cccccc" />
  </g>
</svg>
