<?xml version="1.0" encoding="UTF-8" standalone="no"?>
<!-- Created with Inkscape (http://www.inkscape.org/) -->

<svg
   xmlns:dc="http://purl.org/dc/elements/1.1/"
   xmlns:cc="http://creativecommons.org/ns#"
   xmlns:rdf="http://www.w3.org/1999/02/22-rdf-syntax-ns#"
   xmlns:svg="http://www.w3.org/2000/svg"
   xmlns="http://www.w3.org/2000/svg"
   xmlns:inkscape="http://www.inkscape.org/namespaces/inkscape"
   version="1.1"
   width="684.28723"
   height="593.86169"
   id="svg2">
  <defs
     id="defs4">
    <inkscape:path-effect
       effect="spiro"
       id="path-effect3831" />
    <inkscape:path-effect
       effect="spiro"
       id="path-effect3825" />
    <inkscape:path-effect
       effect="spiro"
       id="path-effect3821" />
    <inkscape:path-effect
       effect="spiro"
       id="path-effect3817" />
    <inkscape:path-effect
       effect="spiro"
       id="path-effect3813" />
    <inkscape:path-effect
       effect="spiro"
       id="path-effect3809" />
    <inkscape:path-effect
       effect="spiro"
       id="path-effect3805" />
  </defs>
  <metadata
     id="metadata7">
    <rdf:RDF>
      <cc:Work
         rdf:about="">
        <dc:format>image/svg+xml</dc:format>
        <dc:type
           rdf:resource="http://purl.org/dc/dcmitype/StillImage" />
        <dc:title></dc:title>
      </cc:Work>
    </rdf:RDF>
  </metadata>
  <g
     transform="translate(0,31.499512)"
     id="layer1">
    <path
       d="m 312.96447,575.40702 a 56.944443,49.537037 0 0 1 113.88466,-0.84377 l -56.94172,0.48411 z"
       transform="matrix(0.96548697,0,0,1.125369,-14.539492,-356.62005)"
       id="path3827"
       style="fill:none;stroke:#000000;stroke-width:4.31709719;stroke-linecap:butt;stroke-linejoin:miter;stroke-miterlimit:4;stroke-opacity:1;stroke-dasharray:none;stroke-dashoffset:0" />
    <path
       d="m 312.96447,575.40702 a 56.944443,49.537037 0 0 1 113.88466,-0.84377 l -56.94172,0.48411 z"
       transform="matrix(-0.96553311,0.0013626,-0.0015601,-1.1276718,700.60535,937.9458)"
       id="path3827-1"
       style="fill:none;stroke:#000000;stroke-width:4.31257963;stroke-linecap:butt;stroke-linejoin:miter;stroke-miterlimit:4;stroke-opacity:1;stroke-dasharray:12.93773985, 12.93773985;stroke-dashoffset:0" />
    <rect
       width="579.78723"
       height="488.29788"
       x="52.25"
       y="21.814301"
       id="rect2996"
       style="opacity:0.63999999;fill:none;stroke:#c60000;stroke-width:4.5;stroke-linecap:butt;stroke-linejoin:miter;stroke-miterlimit:4;stroke-opacity:1;stroke-dasharray:none;stroke-dashoffset:0" />
    <rect
       width="485.10638"
       height="456.38297"
       x="97.994675"
       y="20.750488"
       id="rect2998"
       style="opacity:0.65;fill:none;stroke:#48ab18;stroke-width:4.5;stroke-linecap:butt;stroke-linejoin:miter;stroke-miterlimit:4;stroke-opacity:1;stroke-dasharray:none;stroke-dashoffset:0" />
    <rect
       width="23.148148"
       height="185.18518"
       x="263.43994"
       y="292.2438"
       id="rect3797"
       style="opacity:0.65;fill:#ce2e5c;fill-opacity:1;fill-rule:nonzero;stroke:#000000;stroke-opacity:1" />
    <rect
       width="21.296297"
       height="183.33333"
       x="398.62512"
       y="292.2438"
       id="rect3799"
       style="opacity:0.65;fill:#ce2f5c;fill-opacity:1;fill-rule:nonzero;stroke:#000000;stroke-opacity:1" />
    <path
       d="m 346.2963,454.50986 a 8.7962961,7.8703704 0 1 1 -17.5926,0 8.7962961,7.8703704 0 1 1 17.5926,0 z"
       transform="matrix(0.94736842,0,0,1.0588235,19.300195,-57.772423)"
       id="path3822"
       style="fill:none;stroke:#e8ab18;stroke-width:1.99691117;stroke-linecap:butt;stroke-linejoin:miter;stroke-miterlimit:4;stroke-opacity:1;stroke-dasharray:none;stroke-dashoffset:0" />
    <path
       d="m 324.9787,435.5223 26.89445,0.17604"
       id="path3824"
       style="fill:none;stroke:#48ab18;stroke-width:2;stroke-linecap:butt;stroke-linejoin:miter;stroke-miterlimit:4;stroke-opacity:1;stroke-dasharray:none" />
    <rect
       width="3.7037036"
       height="3.7037036"
       x="337.03705"
       y="463.30615"
       transform="translate(0,-31.499512)"
       id="rect3826"
       style="fill:#e8ab18;fill-opacity:1;stroke:none" />
    <rect
       width="30.555555"
       height="135.18518"
       x="99.551025"
       y="339.46603"
       id="A"
       style="opacity:0.65;fill:#d7c488;fill-opacity:0.96724058;fill-rule:nonzero;stroke:#48ab18;stroke-width:2;stroke-linecap:butt;stroke-linejoin:miter;stroke-miterlimit:4;stroke-opacity:1;stroke-dasharray:none;stroke-dashoffset:0" />
    <rect
       width="77.777779"
       height="95.370369"
       ry="0"
       x="131.95844"
       y="340.39194"
       id="G"
       style="opacity:0.65;fill:#d7c488;fill-opacity:0.96724058;fill-rule:nonzero;stroke:#48ab18;stroke-width:2;stroke-linecap:butt;stroke-linejoin:miter;stroke-miterlimit:4;stroke-opacity:1;stroke-dasharray:none;stroke-dashoffset:0" />
    <rect
       width="52.777775"
       height="96.296295"
       x="210.66214"
       y="340.39194"
       id="N"
       style="opacity:0.65;fill:#d7c488;fill-opacity:0.96724058;fill-rule:nonzero;stroke:#48ab18;stroke-width:2;stroke-linecap:butt;stroke-linejoin:miter;stroke-miterlimit:4;stroke-opacity:1;stroke-dasharray:none;stroke-dashoffset:0" />
    <rect
       width="68.75"
       height="98.379631"
       x="419.68991"
       y="339.23453"
       id="Q"
       style="opacity:0.65;fill:#d7c488;fill-opacity:0.96724058;fill-rule:nonzero;stroke:#48ab18;stroke-width:2;stroke-linecap:butt;stroke-linejoin:miter;stroke-miterlimit:4;stroke-opacity:1;stroke-dasharray:none;stroke-dashoffset:0" />
    <rect
       width="62.962963"
       height="96.296295"
       x="488.43994"
       y="338.54007"
       id="K"
       style="opacity:0.65;fill:#d7c488;fill-opacity:0.96724058;fill-rule:nonzero;stroke:#48ab18;stroke-width:2;stroke-linecap:butt;stroke-linejoin:miter;stroke-miterlimit:4;stroke-opacity:1;stroke-dasharray:none;stroke-dashoffset:0" />
    <rect
       width="28.703703"
       height="137.03703"
       x="553.2547"
       y="338.54007"
       id="E"
       style="opacity:0.65;fill:#d7c488;fill-opacity:0.96724058;fill-rule:nonzero;stroke:#48ab18;stroke-width:2;stroke-linecap:butt;stroke-linejoin:miter;stroke-miterlimit:4;stroke-opacity:1;stroke-dasharray:none;stroke-dashoffset:0" />
    <rect
       width="62.037037"
       height="39.814816"
       x="490.29175"
       y="435.7623"
       id="L"
       style="opacity:0.65;fill:#d7c488;fill-opacity:0.96724058;fill-rule:nonzero;stroke:#48ab18;stroke-width:2;stroke-linecap:butt;stroke-linejoin:miter;stroke-miterlimit:4;stroke-opacity:1;stroke-dasharray:none;stroke-dashoffset:0" />
    <rect
       width="71.296295"
       height="38.888889"
       x="418.99548"
       y="436.6882"
       id="R"
       style="opacity:0.65;fill:#d7c488;fill-opacity:0.96724058;fill-rule:nonzero;stroke:#48ab18;stroke-width:2;stroke-linecap:butt;stroke-linejoin:miter;stroke-miterlimit:4;stroke-opacity:1;stroke-dasharray:none;stroke-dashoffset:0" />
    <rect
       width="79.629631"
       height="38.888889"
       x="131.0325"
       y="437.61417"
       id="F"
       style="opacity:0.65;fill:#d7c488;fill-opacity:0.96724058;fill-rule:nonzero;stroke:#48ab18;stroke-width:2;stroke-linecap:butt;stroke-linejoin:miter;stroke-miterlimit:4;stroke-opacity:1;stroke-dasharray:none;stroke-dashoffset:0" />
    <rect
       width="52.777779"
       height="38.888889"
       x="211.58806"
       y="438.54007"
       id="M"
       style="opacity:0.65;fill:#d7c488;fill-opacity:0.96724058;fill-rule:nonzero;stroke:#48ab18;stroke-width:2;stroke-linecap:butt;stroke-linejoin:miter;stroke-miterlimit:4;stroke-opacity:1;stroke-dasharray:none;stroke-dashoffset:0" />
    <path
       d="m 265.29177,476.27157 72.68518,0 -12.55587,-41.20371 -60.12931,0.69445 0,40.50926"
       id="S"
       style="fill:none;stroke:#48ab18;stroke-width:2;stroke-linecap:butt;stroke-linejoin:miter;stroke-miterlimit:4;stroke-opacity:1;stroke-dasharray:none" />
    <path
       d="m 418.06952,476.50305 0.37314,-40.74074 -67.79989,0.92593 -13.1288,39.81481 80.55555,0"
       id="W"
       style="fill:none;stroke:#48ab18;stroke-width:2;stroke-linecap:butt;stroke-linejoin:miter;stroke-miterlimit:4;stroke-opacity:1;stroke-dasharray:none" />
    <path
       d="m 275.82417,264.00305 -38.31019,-0.46296 -0.92593,75.92592 c 9.2591,0.0676 18.51868,0.0676 27.77778,0 10.10904,-0.0738 20.21749,-0.2281 30.32407,-0.46296 -3.43432,-15.4951 -7.13878,-30.93032 -11.11111,-46.2963 -2.48062,-9.59566 -5.0657,-19.16432 -7.75462,-28.7037"
       id="O"
       style="fill:none;stroke:#48ab18;stroke-width:1px;stroke-linecap:butt;stroke-linejoin:miter;stroke-opacity:1" />
    <path
       d="m 445.84731,339.46601 0,-72.22222 -37.03703,-0.92592 c -3.54031,8.58397 -6.93602,17.22758 -10.18519,25.92592 -5.74718,15.38576 -11.0358,30.94281 -15.85648,46.64353 11.45624,0.29801 22.91522,0.49092 34.375,0.57869 9.56771,0.0733 19.13599,0.0733 28.7037,0"
       id="P"
       style="fill:none;stroke:#48ab18;stroke-width:1px;stroke-linecap:butt;stroke-linejoin:miter;stroke-opacity:1" />
    <path
       d="m 264.59732,437.1512 -1.15741,-97.68518 30.55556,0 31.48147,96.29629 -60.87962,1.38889"
       id="T"
       style="fill:none;stroke:#48ab18;stroke-width:1px;stroke-linecap:butt;stroke-linejoin:miter;stroke-opacity:1" />
    <path
       d="m 552.3288,338.54009 -106.48149,0 -0.23148,-71.75926 -36.80555,-0.23148 21.29629,-53.93518 c 76.85185,34.5679 102.77778,82.09876 122.22223,125.92592 z"
       id="J"
       style="fill:none;stroke:#48ab18;stroke-width:1px;stroke-linecap:butt;stroke-linejoin:miter;stroke-opacity:1" />
    <path
       d="m 129.18065,339.46601 108.33333,0.92593 0,-76.85185 37.96296,0.23148 -16.66666,-54.86111 C 183.193,238.54009 139.05719,303.3549 129.18065,339.46601 z"
       id="H"
       style="fill:none;stroke:#48ab18;stroke-width:1px;stroke-linecap:butt;stroke-linejoin:miter;stroke-opacity:1" />
    <path
       d="m 226.40287,99.651194 33.33334,108.333336 c 44.13581,-14.81481 115.12345,-19.44445 168.51852,4.62963 L 468.99546,99.651194 z"
       id="C"
       style="fill:none;stroke:#48ab18;stroke-width:1px;stroke-linecap:butt;stroke-linejoin:miter;stroke-opacity:1" />
    <path
       d="m 350.93991,435.99379 31.94445,-97.4537 36.34258,0.92592 0.46297,96.75926 z"
       id="V"
       style="fill:none;stroke:#48ab18;stroke-width:1px;stroke-linecap:butt;stroke-linejoin:miter;stroke-opacity:1" />
    <path
       d="M 337.97695,475.57713 294.6899,339.1188 l 87.96297,-0.34723 z"
       id="U"
       style="fill:none;stroke:#48ab18;stroke-width:1px;stroke-linecap:butt;stroke-linejoin:miter;stroke-opacity:1" />
    <path
       d="m 259.27324,207.52157 35.06944,131.25001 87.38426,-0.92594 47.45371,-125.23148 c -58.02469,-25.30864 -124.84568,-19.1358 -169.90741,-5.09259 z"
       id="I"
       style="fill:none;stroke:#48ab18;stroke-width:1px;stroke-linecap:butt;stroke-linejoin:miter;stroke-opacity:1" />
  </g>
</svg>
